# Blender v2.90.0 OBJ File: ''
# www.blender.org
mtllib door.mtl
o Cube.001
v 1.095039 4.001693 -0.181320
v -0.139352 4.001693 -0.181320
v -0.139352 4.001693 0.181322
v 1.095039 4.001693 0.181322
v 1.095039 3.002074 0.181321
v -0.139352 3.002074 0.181321
v -0.139352 3.002074 -0.181321
v 2.020833 0.003218 -0.181321
v 2.329431 0.003218 -0.181321
v 2.329431 0.003218 0.181321
v 2.020833 0.003218 0.181321
v 2.329431 3.002074 -0.181321
v 2.329431 4.001693 -0.181320
v 2.329431 4.001693 0.181322
v 2.329431 3.002074 0.181321
v 2.020833 3.002074 -0.181321
v 2.020833 4.001693 -0.181320
v 2.020833 2.002455 -0.181321
v 2.329431 2.002455 -0.181321
v 2.329431 2.002455 0.181321
v -0.139352 0.003218 0.181321
v -0.139352 2.002455 0.181321
v -0.139352 2.002455 -0.181321
v -0.139352 0.003218 -0.181321
v 1.095039 0.003218 0.181321
v 1.095039 2.002455 0.181321
v 1.712235 0.003218 0.181321
v 1.712235 2.002455 0.181321
v 1.095039 2.002455 -0.181321
v 1.095039 0.003218 -0.181321
v 1.095039 3.002074 -0.181321
v 1.712235 3.002074 0.181321
v 1.712235 4.001693 0.181322
v 1.712235 4.001693 -0.181320
v 2.020833 4.001693 0.181322
v 2.020833 3.002074 0.181321
v 2.020833 2.002455 0.181321
v 1.712235 2.002455 -0.181321
v 1.712235 0.003218 -0.181321
v 1.712235 3.002074 -0.181321
v 1.095039 2.502265 -0.181321
v 1.712235 2.502265 -0.181321
v 2.184140 2.502265 0.181321
v 1.875542 2.502265 0.181321
v 1.095039 2.502265 0.181321
v -0.139352 2.502265 -0.181321
v 2.020833 2.502265 -0.181321
v 2.329431 2.502265 -0.181321
v 2.329431 2.502265 0.181321
v -0.139352 2.502265 0.181321
v 1.095039 2.252360 0.181321
v -0.139352 2.252360 0.181321
v -0.139352 2.252360 -0.181321
v 2.329431 2.252360 -0.181321
v 2.329431 2.252360 0.181321
v 2.020833 2.252360 -0.181321
v 1.095039 2.252360 -0.181321
v 1.875542 2.252360 0.181321
v 2.184140 2.252360 0.181321
v 2.131506 2.459642 0.316668
v 2.131506 2.294983 0.316668
v 1.712235 2.252360 -0.181321
v 2.131506 2.459642 0.517920
v 2.131506 2.294983 0.517920
v 1.928175 2.459642 0.316668
v 1.928175 2.294983 0.316668
v 1.928175 2.459642 0.517920
v 1.928175 2.294983 0.517920
v 1.512878 2.294983 0.517920
v 1.512878 2.294983 0.316668
v 1.512878 2.459642 0.316668
v 1.512878 2.459642 0.517920
vt 0.875000 0.500000
vt 0.750000 0.750000
vt 0.750000 0.500000
vt 0.625000 0.875000
vt 0.562500 1.000000
vt 0.562500 0.875000
vt 0.625000 0.000000
vt 0.562500 0.250000
vt 0.562500 0.000000
vt 0.375000 0.500000
vt 0.343750 0.750000
vt 0.343750 0.500000
vt 0.625000 0.500000
vt 0.562500 0.750000
vt 0.562500 0.500000
vt 0.625000 0.468750
vt 0.562500 0.468750
vt 0.500000 0.468750
vt 0.375000 0.468750
vt 0.500000 0.500000
vt 0.375000 0.750000
vt 0.500000 0.000000
vt 0.375000 0.250000
vt 0.375000 0.000000
vt 0.500000 0.875000
vt 0.375000 1.000000
vt 0.375000 0.875000
vt 0.500000 0.812500
vt 0.375000 0.812500
vt 0.500000 0.250000
vt 0.375000 0.375000
vt 0.625000 0.250000
vt 0.562500 0.375000
vt 0.250000 0.500000
vt 0.125000 0.750000
vt 0.125000 0.500000
vt 0.625000 0.812500
vt 0.562500 0.812500
vt 0.687500 0.750000
vt 0.687500 0.500000
vt 0.656250 0.750000
vt 0.656250 0.500000
vt 0.625000 0.781250
vt 0.562500 0.781250
vt 0.500000 0.781250
vt 0.375000 0.781250
vt 0.500000 0.375000
vt 0.375000 0.437500
vt 0.625000 0.375000
vt 0.562500 0.437500
vt 0.312500 0.500000
vt 0.250000 0.750000
vt 0.531250 0.437500
vt 0.531250 0.375000
vt 0.531250 0.812500
vt 0.531250 0.781250
vt 0.531250 0.875000
vt 0.531250 0.250000
vt 0.531250 0.500000
vt 0.531250 0.468750
vt 0.531250 0.750000
vt 0.531250 0.000000
vt 0.531250 1.000000
vt 0.515625 1.000000
vt 0.515625 0.875000
vt 0.515625 0.250000
vt 0.515625 0.000000
vt 0.515625 0.750000
vt 0.515625 0.500000
vt 0.515625 0.468750
vt 0.515625 0.375000
vt 0.515625 0.812500
vt 0.515625 0.781250
vt 0.531250 0.781250
vt 0.515625 0.781250
vt 0.515625 0.437500
vt 0.500000 0.437500
vt 0.500000 0.750000
vt 0.500000 1.000000
vt 0.625000 0.750000
vt 0.625000 0.437500
vt 0.312500 0.750000
vt 0.515625 0.781250
vt 0.515625 0.812500
vt 0.531250 0.812500
vt 0.531250 0.781250
vt 0.515625 0.812500
vt 0.515625 0.812500
vt 0.531250 0.812500
vt 0.531250 0.812500
vt 0.531250 0.812500
vt 0.515625 0.812500
vt 0.875000 0.750000
vt 0.625000 1.000000
vn 0.0000 1.0000 0.0000
vn 0.0000 -0.0000 1.0000
vn -1.0000 -0.0000 0.0000
vn 0.0000 -1.0000 -0.0000
vn 1.0000 -0.0000 0.0000
vn 0.0000 0.0000 -1.0000
vn 0.9320 0.0000 0.3624
vn 0.0000 0.9538 0.3004
vn 0.0000 -0.9538 0.3004
vn -0.9320 0.0000 0.3624
usemtl Material.001
s 1
f 2/1/1 4/2/1 1/3/1
f 4/4/2 6/5/2 5/6/2
f 3/7/3 7/8/3 6/9/3
f 9/10/4 11/11/4 8/12/4
f 13/13/5 15/14/5 12/15/5
f 17/16/6 12/15/6 16/17/6
f 18/18/6 9/10/6 8/19/6
f 19/20/5 10/21/5 9/10/5
f 22/22/3 24/23/3 21/24/3
f 26/25/2 21/26/2 25/27/2
f 28/28/2 25/27/2 27/29/2
f 23/30/6 30/31/6 24/23/6
f 2/32/6 31/33/6 7/8/6
f 30/34/4 21/35/4 24/36/4
f 33/37/2 5/6/2 32/38/2
f 1/3/1 33/39/1 34/40/1
f 34/40/1 35/41/1 17/42/1
f 35/43/2 32/38/2 36/44/2
f 37/45/2 27/29/2 11/46/2
f 29/47/6 39/48/6 30/31/6
f 1/49/6 40/50/6 31/33/6
f 39/51/4 25/52/4 30/34/4
f 31/33/6 42/53/6 41/54/6
f 36/44/2 44/55/2 43/56/2
f 32/38/2 45/57/2 44/55/2
f 7/8/6 41/54/6 46/58/6
f 16/17/6 48/59/6 47/60/6
f 12/15/5 49/61/5 48/59/5
f 6/9/3 46/58/3 50/62/3
f 5/6/2 50/63/2 45/57/2
f 45/57/2 52/64/2 51/65/2
f 50/62/3 53/66/3 52/67/3
f 48/59/5 55/68/5 54/69/5
f 47/60/6 54/69/6 56/70/6
f 46/58/6 57/71/6 53/66/6
f 44/55/2 51/65/2 58/72/2
f 59/73/7 60/74/7 61/75/7
f 41/54/6 62/76/6 57/71/6
f 57/71/6 38/77/6 29/47/6
f 37/45/2 58/72/2 28/28/2
f 28/28/2 51/65/2 26/25/2
f 53/66/6 29/47/6 23/30/6
f 56/70/6 19/20/6 18/18/6
f 54/69/5 20/78/5 19/20/5
f 52/67/3 23/30/3 22/22/3
f 51/65/2 22/79/2 26/25/2
f 62/76/6 18/18/6 38/77/6
f 20/78/2 59/73/2 37/45/2
f 49/61/2 59/73/2 55/68/2
f 42/53/6 56/70/6 62/76/6
f 40/50/6 47/60/6 42/53/6
f 15/14/2 43/56/2 49/61/2
f 20/78/2 11/46/2 10/21/2
f 14/80/2 36/44/2 15/14/2
f 17/42/1 14/80/1 13/13/1
f 38/77/6 8/19/6 39/48/6
f 34/81/6 16/17/6 40/50/6
f 8/12/4 27/82/4 39/51/4
f 60/74/5 64/83/5 61/75/5
f 44/55/8 60/74/8 43/56/8
f 58/72/9 61/75/9 66/84/9
f 58/72/10 65/85/10 44/55/10
f 63/86/2 68/87/2 64/83/2
f 68/87/4 70/88/4 66/84/4
f 61/75/4 68/87/4 66/84/4
f 65/85/1 63/86/1 60/74/1
f 70/88/3 72/89/3 71/90/3
f 66/84/6 71/90/6 65/85/6
f 65/85/1 72/89/1 67/91/1
f 67/91/2 69/92/2 68/87/2
f 2/1/1 3/93/1 4/2/1
f 4/4/2 3/94/2 6/5/2
f 3/7/3 2/32/3 7/8/3
f 9/10/4 10/21/4 11/11/4
f 13/13/5 14/80/5 15/14/5
f 17/16/6 13/13/6 12/15/6
f 18/18/6 19/20/6 9/10/6
f 19/20/5 20/78/5 10/21/5
f 22/22/3 23/30/3 24/23/3
f 26/25/2 22/79/2 21/26/2
f 28/28/2 26/25/2 25/27/2
f 23/30/6 29/47/6 30/31/6
f 2/32/6 1/49/6 31/33/6
f 30/34/4 25/52/4 21/35/4
f 33/37/2 4/4/2 5/6/2
f 1/3/1 4/2/1 33/39/1
f 34/40/1 33/39/1 35/41/1
f 35/43/2 33/37/2 32/38/2
f 37/45/2 28/28/2 27/29/2
f 29/47/6 38/77/6 39/48/6
f 1/49/6 34/81/6 40/50/6
f 39/51/4 27/82/4 25/52/4
f 31/33/6 40/50/6 42/53/6
f 36/44/2 32/38/2 44/55/2
f 32/38/2 5/6/2 45/57/2
f 7/8/6 31/33/6 41/54/6
f 16/17/6 12/15/6 48/59/6
f 12/15/5 15/14/5 49/61/5
f 6/9/3 7/8/3 46/58/3
f 5/6/2 6/5/2 50/63/2
f 45/57/2 50/63/2 52/64/2
f 50/62/3 46/58/3 53/66/3
f 48/59/5 49/61/5 55/68/5
f 47/60/6 48/59/6 54/69/6
f 46/58/6 41/54/6 57/71/6
f 44/55/2 45/57/2 51/65/2
f 59/73/7 43/56/7 60/74/7
f 41/54/6 42/53/6 62/76/6
f 57/71/6 62/76/6 38/77/6
f 37/45/2 59/73/2 58/72/2
f 28/28/2 58/72/2 51/65/2
f 53/66/6 57/71/6 29/47/6
f 56/70/6 54/69/6 19/20/6
f 54/69/5 55/68/5 20/78/5
f 52/67/3 53/66/3 23/30/3
f 51/65/2 52/64/2 22/79/2
f 62/76/6 56/70/6 18/18/6
f 20/78/2 55/68/2 59/73/2
f 49/61/2 43/56/2 59/73/2
f 42/53/6 47/60/6 56/70/6
f 40/50/6 16/17/6 47/60/6
f 15/14/2 36/44/2 43/56/2
f 20/78/2 37/45/2 11/46/2
f 14/80/2 35/43/2 36/44/2
f 17/42/1 35/41/1 14/80/1
f 38/77/6 18/18/6 8/19/6
f 34/81/6 17/16/6 16/17/6
f 8/12/4 11/11/4 27/82/4
f 60/74/5 63/86/5 64/83/5
f 44/55/8 65/85/8 60/74/8
f 58/72/9 59/73/9 61/75/9
f 58/72/10 66/84/10 65/85/10
f 63/86/2 67/91/2 68/87/2
f 68/87/4 69/92/4 70/88/4
f 61/75/4 64/83/4 68/87/4
f 65/85/1 67/91/1 63/86/1
f 70/88/3 69/92/3 72/89/3
f 66/84/6 70/88/6 71/90/6
f 65/85/1 71/90/1 72/89/1
f 67/91/2 72/89/2 69/92/2
