# Blender v2.90.0 OBJ File: ''
# www.blender.org
mtllib playermodel.mtl
o Cube
v 1.000000 4.029535 -1.000000
v 1.000000 0.055838 -1.000000
v 1.000000 4.029535 1.000000
v 1.000000 0.055838 1.000000
v -1.000000 4.029535 -1.000000
v -0.609085 0.055838 -1.000000
v -1.000000 4.029535 1.000000
v -0.609085 0.055838 1.000000
v 1.000000 4.029535 -1.000000
v 1.000000 4.029535 1.000000
v -1.000000 4.029535 -1.000000
v -1.000000 4.029535 1.000000
v 0.825789 4.284656 0.825789
v -0.825789 4.284656 0.825789
v 0.825789 4.284656 -0.825789
v -0.825789 4.284656 -0.825789
v 0.372923 4.319654 0.372923
v -0.372923 4.319654 0.372923
v 0.372923 4.319654 -0.372923
v -0.372923 4.319654 -0.372923
v 0.372923 5.743199 0.372923
v -0.372923 5.743199 0.372923
v 0.372923 5.743199 -0.372923
v -0.372923 5.743199 -0.372923
v 1.000000 2.042687 -1.000000
v -0.783359 2.042687 1.000000
v 1.000000 2.042687 1.000000
v -0.783359 2.042687 -1.000000
v -0.434862 2.637633 1.099826
v -0.434862 3.434588 1.099826
v 0.434862 3.434588 1.099826
v 0.434862 2.637633 1.099826
v -0.434862 3.434588 -1.091507
v 0.434862 3.434588 -1.091507
v 0.434862 2.637633 -1.091507
v -0.434862 2.637633 -1.091507
v -0.434862 3.434588 -1.988502
v 0.434862 3.434588 -1.988502
v 0.434862 2.637633 -1.988502
v -0.434862 2.637633 -1.988502
v -0.434862 2.637633 1.979571
v -0.434862 3.434588 1.979571
v 0.434862 3.434588 1.979571
v 0.434862 2.637633 1.979571
v 1.135784 0.523527 -1.000000
v 1.135784 0.036149 -1.000000
v 1.135784 0.523527 1.000000
v 1.135784 0.036149 1.000000
v 1.342466 0.523527 -1.000000
v 1.973332 0.036149 -1.000000
v 1.342466 0.523527 1.000000
v 1.973332 0.036149 1.000000
vt 0.875000 0.750000
vt 0.875000 0.500000
vt 0.875000 0.500000
vt 0.000000 0.000000
vt 0.000000 0.000000
vt 0.000000 0.000000
vt 0.625000 0.000000
vt 0.500000 0.250000
vt 0.500000 0.000000
vt 0.375000 0.500000
vt 0.125000 0.750000
vt 0.125000 0.500000
vt 0.625000 0.500000
vt 0.500000 0.750000
vt 0.500000 0.500000
vt 0.500000 0.500000
vt 0.625000 0.750000
vt 0.875000 0.500000
vt 0.625000 0.500000
vt 0.625000 0.500000
vt 0.625000 0.750000
vt 0.875000 0.750000
vt 0.875000 0.750000
vt 0.875000 0.500000
vt 0.625000 0.500000
vt 0.625000 0.750000
vt 0.625000 0.750000
vt 0.625000 0.500000
vt 0.875000 0.750000
vt 0.375000 0.250000
vt 0.375000 0.750000
vt 0.500000 0.750000
vt 0.375000 0.000000
vt 0.375000 1.000000
vt 0.625000 0.750000
vt 0.500000 0.750000
vt 0.500000 0.750000
vt 0.625000 0.750000
vt 0.500000 0.000000
vt 0.625000 0.000000
vt 0.500000 1.000000
vt 0.500000 1.000000
vt 0.500000 0.250000
vt 0.500000 0.500000
vt 0.625000 0.500000
vt 0.000000 0.000000
vt 0.000000 0.000000
vt 0.000000 0.000000
vt 0.625000 0.250000
vt 0.625000 0.250000
vt 0.500000 0.250000
vt 0.625000 0.500000
vt 0.625000 0.250000
vt 0.000000 0.000000
vt 0.000000 0.000000
vt 0.625000 0.750000
vt 0.500000 1.000000
vt 0.625000 0.000000
vt 0.000000 0.000000
vt 0.000000 0.000000
vt 0.500000 0.500000
vt 0.500000 0.500000
vt 0.375000 0.500000
vt 0.375000 0.750000
vt 0.375000 0.750000
vt 0.375000 0.500000
vt 0.500000 0.750000
vt 0.000000 0.000000
vt 0.625000 1.000000
vt 0.500000 0.000000
vt 0.000000 0.000000
vn -0.0771 0.9970 0.0000
vn 0.0000 0.1655 0.9862
vn -0.9941 -0.1084 0.0000
vn 0.0000 -1.0000 0.0000
vn 1.0000 0.0000 0.0000
vn 0.0000 -0.1520 -0.9884
vn 0.0000 0.5639 -0.8258
vn 0.8258 0.5639 0.0000
vn -0.8258 0.5639 0.0000
vn 0.0000 0.5639 0.8258
vn -1.0000 0.0000 0.0000
vn 0.0000 0.9970 0.0771
vn 0.0000 0.9970 -0.0771
vn 0.0771 0.9970 0.0000
vn 0.0000 1.0000 0.0000
vn 0.0000 0.0000 1.0000
vn 0.0000 0.0000 -1.0000
vn -0.9962 -0.0874 0.0000
vn 0.1739 0.0000 0.9848
vn -0.1739 0.0000 0.9848
vn 0.0000 -0.1655 0.9862
vn 0.1598 0.0000 -0.9871
vn 0.0000 0.1520 -0.9884
vn -0.2161 -0.0236 -0.9761
vn -0.1435 -0.9896 0.0000
vn 0.9960 0.0890 0.0000
vn 0.6114 0.7914 0.0000
vn -0.2347 -0.0256 0.9717
vn -0.1598 0.0000 -0.9871
usemtl Material
s off
f 14/1/1 20/2/1 16/3/1
f 7/4/2 31/5/2 3/6/2
f 7/7/3 28/8/3 26/9/3
f 2/10/4 8/11/4 6/12/4
f 1/13/5 27/14/5 25/15/5
f 28/8/6 35/16/6 25/15/6
f 10/17/4 11/18/4 9/19/4
f 11/18/7 15/20/7 9/19/7
f 9/19/8 13/21/8 10/17/8
f 12/22/9 16/3/9 11/18/9
f 10/17/10 14/1/10 12/22/10
f 18/23/11 24/24/11 20/2/11
f 13/21/12 18/23/12 14/1/12
f 16/3/13 19/25/13 15/20/13
f 15/20/14 17/26/14 13/21/14
f 24/24/15 21/27/15 23/28/15
f 17/26/16 22/29/16 18/23/16
f 20/2/17 23/28/17 19/25/17
f 19/25/5 21/27/5 17/26/5
f 6/30/17 25/15/17 2/10/17
f 4/31/16 47/32/16 27/14/16
f 26/9/18 6/30/18 8/33/18
f 27/14/16 8/34/16 4/31/16
f 31/35/5 44/36/5 32/37/5
f 3/38/19 32/37/19 27/14/19
f 7/7/20 29/39/20 30/40/20
f 26/41/21 32/37/21 29/42/21
f 36/43/4 39/44/4 35/16/4
f 25/15/22 34/45/22 1/13/22
f 1/46/23 33/47/23 5/48/23
f 5/49/24 36/43/24 28/8/24
f 37/50/17 39/44/17 40/51/17
f 35/16/5 38/52/5 34/45/5
f 33/53/11 40/51/11 36/43/11
f 34/54/15 37/55/15 33/47/15
f 43/56/16 41/57/16 44/36/16
f 29/39/11 42/58/11 30/40/11
f 32/37/4 41/57/4 29/42/4
f 30/59/15 43/60/15 31/5/15
f 47/32/15 49/61/15 45/62/15
f 2/10/17 45/62/17 46/63/17
f 2/10/25 48/64/25 4/31/25
f 27/14/26 45/62/26 25/15/26
f 49/61/27 52/65/27 50/66/27
f 48/64/16 51/67/16 47/32/16
f 46/63/4 52/65/4 48/64/4
f 46/63/17 49/61/17 50/66/17
f 14/1/1 18/23/1 20/2/1
f 7/4/2 30/59/2 31/5/2
f 7/7/3 5/49/3 28/8/3
f 2/10/4 4/31/4 8/11/4
f 1/13/5 3/38/5 27/14/5
f 28/8/6 36/43/6 35/16/6
f 10/17/4 12/22/4 11/18/4
f 11/18/7 16/3/7 15/20/7
f 9/19/8 15/20/8 13/21/8
f 12/22/9 14/1/9 16/3/9
f 10/17/10 13/21/10 14/1/10
f 18/23/11 22/29/11 24/24/11
f 13/21/12 17/26/12 18/23/12
f 16/3/13 20/2/13 19/25/13
f 15/20/14 19/25/14 17/26/14
f 24/24/15 22/29/15 21/27/15
f 17/26/16 21/27/16 22/29/16
f 20/2/17 24/24/17 23/28/17
f 19/25/5 23/28/5 21/27/5
f 6/30/17 28/8/17 25/15/17
f 4/31/16 48/64/16 47/32/16
f 26/9/18 28/8/18 6/30/18
f 27/14/16 26/41/16 8/34/16
f 31/35/5 43/56/5 44/36/5
f 3/38/19 31/35/19 32/37/19
f 7/7/28 26/9/28 29/39/28
f 26/41/21 27/14/21 32/37/21
f 36/43/4 40/51/4 39/44/4
f 25/15/22 35/16/22 34/45/22
f 1/46/23 34/54/23 33/47/23
f 5/49/29 33/53/29 36/43/29
f 37/50/17 38/52/17 39/44/17
f 35/16/5 39/44/5 38/52/5
f 33/53/11 37/50/11 40/51/11
f 34/54/15 38/68/15 37/55/15
f 43/56/16 42/69/16 41/57/16
f 29/39/11 41/70/11 42/58/11
f 32/37/4 44/36/4 41/57/4
f 30/59/15 42/71/15 43/60/15
f 47/32/15 51/67/15 49/61/15
f 2/10/17 25/15/17 45/62/17
f 2/10/25 46/63/25 48/64/25
f 27/14/26 47/32/26 45/62/26
f 49/61/27 51/67/27 52/65/27
f 48/64/16 52/65/16 51/67/16
f 46/63/4 50/66/4 52/65/4
f 46/63/17 45/62/17 49/61/17
